<svg width="1440" height="2025" viewBox="0 0 1440 2025" fill="none" xmlns="http://www.w3.org/2000/svg">
<g clip-path="url(#clip0)">
<rect width="1440" height="2025" fill="white"/>
<rect width="1440" height="2025" fill="#D3F1FF"/>
<rect width="1440" height="2025" fill="#D3F1FF"/>
<rect width="1440" height="2025" fill="#D3F1FF"/>
<path d="M1473.53 155.032C1460.33 155.024 1447.28 157.918 1435.31 163.51C1423.32 142.722 1405.13 126.211 1383.28 116.288C1361.44 106.365 1337.04 103.529 1313.51 108.177C1289.97 112.825 1268.48 124.724 1252.05 142.206C1235.61 159.688 1225.05 181.878 1221.85 205.665C1212.75 198.345 1202.03 193.313 1190.59 190.991C1179.15 188.669 1167.31 189.125 1156.08 192.321C1144.85 195.517 1134.55 201.359 1126.04 209.358C1117.53 217.357 1111.06 227.281 1107.17 238.297C1103.28 249.313 1102.09 261.102 1103.69 272.674C1105.29 284.246 1109.65 295.266 1116.38 304.809C1123.12 314.352 1132.04 322.142 1142.4 327.525C1152.77 332.907 1164.27 335.727 1175.94 335.747C1179.41 335.745 1182.86 335.492 1186.29 334.991H1322.67C1331.28 335.999 1339.97 335.999 1348.58 334.991H1462.11C1465.9 335.476 1469.71 335.728 1473.53 335.747C1497.49 335.747 1520.46 326.227 1537.39 309.282C1554.33 292.336 1563.84 269.354 1563.84 245.39C1563.84 221.425 1554.33 198.443 1537.39 181.497C1520.46 164.552 1497.49 155.032 1473.53 155.032V155.032Z" fill="white"/>
<path d="M185.522 120.665C177.554 120.66 169.683 122.411 162.463 125.794C155.229 113.218 144.255 103.228 131.078 97.2243C117.902 91.221 103.184 89.5051 88.987 92.3171C74.79 95.1291 61.8254 102.328 51.9105 112.905C41.9955 123.482 35.627 136.907 33.6973 151.299C28.2079 146.87 21.7406 143.825 14.8373 142.421C7.93403 141.016 0.795872 141.292 -5.97927 143.225C-12.7544 145.159 -18.9691 148.693 -24.1027 153.533C-29.2363 158.373 -33.1394 164.377 -35.4848 171.042C-37.8302 177.707 -38.5496 184.839 -37.5829 191.84C-36.6161 198.841 -33.9912 205.508 -29.9282 211.282C-25.8652 217.056 -20.4826 221.769 -14.231 225.026C-7.9794 228.282 -1.04097 229.988 6.00281 230C8.09114 229.999 10.1767 229.846 12.243 229.543H94.5146C99.7069 230.152 104.952 230.152 110.145 229.543H178.628C180.915 229.836 183.217 229.989 185.522 230C199.971 230 213.827 224.24 224.044 213.988C234.26 203.736 240 189.831 240 175.333C240 160.834 234.26 146.929 224.044 136.677C213.827 126.425 199.971 120.665 185.522 120.665V120.665Z" fill="white"/>
<path opacity="0.56" d="M1775 1087.7C1775 1087.7 1320.79 764.37 1052.93 843.458C785.059 922.547 773.412 1029.55 470.607 1050.48C167.801 1071.42 1653.88 1438.95 1775 1087.7Z" fill="url(#paint0_linear)"/>
<path opacity="0.54" d="M-12.8629 680.846C-12.8629 680.846 17.4153 630.358 76.6274 667.858C106.106 686.547 92.5053 731.346 92.5053 731.346C92.5053 731.346 130.05 714.024 181.996 751.536C233.941 789.048 213.751 874.155 213.751 874.155C213.751 874.155 226.747 862.62 242.625 872.715C258.503 882.81 255.608 902.976 255.608 902.976C255.608 902.976 285.959 843.664 350.912 859.521C415.864 875.378 411.468 941.929 411.468 941.929C411.468 941.929 437.447 910.19 495.193 933.274C544.341 952.919 551.487 1012.62 551.487 1012.62C551.487 1012.62 677.056 960.678 768 1066C518.277 1064.55 -23 1066 -23 1066L-12.8629 680.846Z" fill="white"/>
<path fill-rule="evenodd" clip-rule="evenodd" d="M680.498 984.185C334.614 915.766 -89.0001 1052.34 -89.0001 1052.34C-74.2578 1095.06 -43.536 1129.38 -0.385887 1156.49V2276.76H1439.61V1100.75C1599 1054.29 1668.69 1012.67 1561.61 1005.27C1398.64 994.005 1277.47 1000.89 1165.42 1007.25C1014.03 1015.85 879.267 1023.5 680.498 984.185Z" fill="#83BD68"/>
<path d="M267.69 1013.51L253.59 955.45L239.5 1013.51H244.83L239.5 1035.48H267.69L262.36 1013.51H267.69Z" fill="#8FBF79"/>
<path d="M219.69 990.53L210.1 951L200.5 990.53H204.13L200.5 1005.49H219.69L216.06 990.53H219.69Z" fill="#8CCC71"/>
<path d="M221.19 1095.48L198.1 1000.36L175 1095.48H183.74L175 1131.48H221.19L212.45 1095.48H221.19Z" fill="#80AD6D"/>
<path d="M258.69 1065L240.09 988.4L221.5 1065H228.54L221.5 1093.98H258.69L251.65 1065H258.69Z" fill="#83B26D"/>
<path d="M314.19 1044.83L297.09 974.42L279.99 1044.83H286.46L279.99 1071.48H314.19L307.72 1044.83H314.19Z" fill="#91BC7D"/>
<path d="M291.69 1097.99L273.09 1021.4L254.5 1097.99H261.53L254.5 1126.98H291.69L284.65 1097.99H291.69Z" fill="#80AD6D"/>
<path d="M624.69 1013.51L610.59 955.45L596.5 1013.51H601.83L596.5 1035.48H624.69L619.36 1013.51H624.69Z" fill="#8FBF79"/>
<path d="M576.69 990.53L567.1 951L557.5 990.53H561.13L557.5 1005.49H576.69L573.06 990.53H576.69Z" fill="#8CCC71"/>
<path d="M578.19 1095.48L555.1 1000.36L532 1095.48H540.74L532 1131.48H578.19L569.45 1095.48H578.19Z" fill="#80AD6D"/>
<path d="M615.69 1065L597.09 988.4L578.5 1065H585.54L578.5 1093.98H615.69L608.65 1065H615.69Z" fill="#83B26D"/>
<path d="M671.19 1044.83L654.09 974.42L636.99 1044.83H643.46L636.99 1071.48H671.19L664.72 1044.83H671.19Z" fill="#91BC7D"/>
<path d="M648.69 1097.99L630.09 1021.4L611.5 1097.99H618.53L611.5 1126.98H648.69L641.65 1097.99H648.69Z" fill="#80AD6D"/>
<path d="M963.69 1009.51L949.59 951.45L935.5 1009.51H940.83L935.5 1031.48H963.69L958.36 1009.51H963.69Z" fill="#8FBF79"/>
<path d="M915.69 986.53L906.1 947L896.5 986.53H900.13L896.5 1001.49H915.69L912.06 986.53H915.69Z" fill="#8CCC71"/>
<path d="M917.19 1091.48L894.1 996.36L871 1091.48H879.74L871 1127.48H917.19L908.45 1091.48H917.19Z" fill="#80AD6D"/>
<path d="M954.69 1061L936.09 984.4L917.5 1061H924.54L917.5 1089.98H954.69L947.65 1061H954.69Z" fill="#83B26D"/>
<path d="M1010.19 1040.83L993.09 970.42L975.99 1040.83H982.46L975.99 1067.48H1010.19L1003.72 1040.83H1010.19Z" fill="#91BC7D"/>
<path d="M987.69 1093.99L969.09 1017.4L950.5 1093.99H957.53L950.5 1122.98H987.69L980.65 1093.99H987.69Z" fill="#80AD6D"/>
<path d="M1269.5 1013.51L1283.6 955.45L1297.69 1013.51H1292.36L1297.69 1035.48H1269.5L1274.83 1013.51H1269.5Z" fill="#8FBF79"/>
<path d="M1317.5 990.53L1327.09 951L1336.69 990.53H1333.06L1336.69 1005.49H1317.5L1321.13 990.53H1317.5Z" fill="#8CCC71"/>
<path d="M1316 1095.48L1339.09 1000.36L1362.19 1095.48H1353.45L1362.19 1131.48H1316L1324.74 1095.48H1316Z" fill="#80AD6D"/>
<path d="M1278.5 1065L1297.1 988.4L1315.69 1065H1308.65L1315.69 1093.98H1278.5L1285.54 1065H1278.5Z" fill="#83B26D"/>
<path d="M1223 1044.83L1240.1 974.42L1257.2 1044.83H1250.73L1257.2 1071.48H1223L1229.47 1044.83H1223Z" fill="#91BC7D"/>
<path d="M1245.5 1097.99L1264.1 1021.4L1282.69 1097.99H1275.66L1282.69 1126.98H1245.5L1252.54 1097.99H1245.5Z" fill="#80AD6D"/>
</g>
<defs>
<linearGradient id="paint0_linear" x1="-643731" y1="354975" x2="-643731" y2="135471" gradientUnits="userSpaceOnUse">
<stop stop-color="white"/>
<stop offset="1" stop-color="#7DBCE2"/>
</linearGradient>
<clipPath id="clip0">
<rect width="1440" height="2025" fill="white"/>
</clipPath>
</defs>
</svg>
