<svg width="240" height="67" viewBox="0 0 240 67" fill="none" xmlns="http://www.w3.org/2000/svg">
<path fill-rule="evenodd" clip-rule="evenodd" d="M35.2995 3.23137C28.5477 0.95116 22.13 6.9336 13.2891 5.66712C4.44541 4.39787 -0.930452 12.0356 0.133579 15.2685C1.2004 18.4985 6.54562 13.6381 11.4173 18.5652C16.2834 23.4894 22.9155 25.5503 25.4113 23.1451C27.9098 20.7399 26.3973 18.2291 30.2356 16.5933C34.0767 14.9518 36.8315 10.0192 37.3914 7.79736C38.0181 5.30606 37.6838 4.03681 35.2995 3.23137Z" fill="#231F20"/>
<path fill-rule="evenodd" clip-rule="evenodd" d="M67.1542 4.6535C63.6864 6.67542 68.7336 8.31962 70.2767 12.2246C71.104 14.3104 71.7223 17.0516 71.8226 19.3791C71.9173 21.6065 73.2153 22.237 75.1651 19.7429C78.4101 15.5935 80.034 13.8743 89.8916 15.513C94.8831 16.3434 99.298 13.2911 101.011 10.6193C101.654 9.61943 103.367 5.89221 98.8467 6.00052C94.9917 6.09495 93.5517 6.13939 90.7217 3.90084C87.3374 1.21791 84.0005 -0.0485697 81.2345 0.00142317C78.8948 0.0430838 76.9868 1.12348 75.5578 2.11222C72.4995 4.23134 69.6472 3.20094 67.1542 4.6535Z" fill="#231F20"/>
<path fill-rule="evenodd" clip-rule="evenodd" d="M28.0512 22.3176C26.2602 25.9671 27.8785 28.8916 28.3576 33.3604C28.8395 37.8292 25.8284 42.4868 26.9036 41.5259C27.9816 40.5677 30.4884 38.0764 30.1291 34.177C29.7726 30.2775 27.8367 25.4672 27.9816 24.2257C28.1236 22.9786 28.0512 22.3176 28.0512 22.3176Z" fill="#231F20"/>
<path fill-rule="evenodd" clip-rule="evenodd" d="M58.663 41.4842C57.6964 41.4092 56.3901 42.2952 55.4152 43.0534C54.0475 44.1171 59.0251 43.8533 59.6852 42.6618C59.9359 42.2174 59.2396 41.5314 58.663 41.4842ZM67.0944 43.8005C67.4677 46.339 66.3674 45.3614 66.295 45.8613C66.2727 46.0307 66.3981 46.3862 66.6237 46.6417C67.1362 47.2111 66.9134 47.9554 66.3452 49.3941C65.3118 51.9909 63.4316 53.8823 62.3509 52.6769C61.791 52.0604 60.6044 53.0102 59.1866 53.1769C57.7744 53.3435 55.8581 52.2659 54.7968 50.6578C53.7328 49.0441 53.0253 47.7332 54.3623 47.2861C55.6965 46.8389 52.613 45.4613 52.1729 44.3282C51.7356 43.1978 52.5462 42.5507 53.301 41.6702C54.0531 40.787 56.8274 39.7955 58.6908 39.8177C66.1808 39.9011 66.8549 42.1757 67.0944 43.8005Z" fill="#231F20"/>
<path fill-rule="evenodd" clip-rule="evenodd" d="M46.1659 56.5205C47.0851 56.7344 46.6283 56.9955 46.1492 57.0399C44.2996 57.2093 42.0462 56.1873 39.531 52.3601C38.5394 50.8436 37.1773 50.5298 36.2943 49.5188C34.3724 47.3136 33.158 44.9473 31.8822 41.77C30.0244 37.1373 32.2388 41.1395 33.0048 41.8422C35.3612 44.0169 35.7261 46.7581 37.2832 48.3662C38.8402 49.966 40.7148 50.2187 41.6813 52.3739C42.9989 55.3013 44.8902 56.2262 46.1659 56.5205Z" fill="#231F20"/>
<path fill-rule="evenodd" clip-rule="evenodd" d="M73.081 23.0149C72.964 24.8036 73.1673 26.956 72.3762 28.3003C71.5908 29.6473 71.5908 32.0497 71.6799 32.819C71.7662 33.5884 71.8526 32.6246 72.3762 31.1859C72.9055 29.7445 73.6965 28.878 74.0447 27.2449C74.3957 25.609 73.1701 21.6679 73.081 23.0149Z" fill="#231F20"/>
<path fill-rule="evenodd" clip-rule="evenodd" d="M67.1366 21.1431C66.4235 21.5819 65.7996 22.2901 65.6158 23.0178C65.808 23.9316 66.2425 24.3148 66.5127 24.4565C67.0893 23.1956 67.6937 22.529 67.9945 22.2985C67.8552 22.0763 67.1366 21.1431 67.1366 21.1431ZM67.5433 28.5003C68.4179 28.2587 70.7772 27.3616 71.0863 24.3509C71.273 22.5345 69.6156 20.7098 68.1087 20.5098C66.6018 20.3099 65.237 20.8598 64.8609 22.7678C64.4877 24.6759 65.989 28.1615 65.6102 28.6586C65.4598 29.739 66.6631 28.7392 67.5433 28.5003Z" fill="#231F20"/>
<path fill-rule="evenodd" clip-rule="evenodd" d="M45.2888 2.94524C49.1188 1.4788 53.8568 1.18162 55.6979 1.56212C57.5391 1.93984 53.8122 1.58156 52.9292 1.91206C51.2858 2.52031 54.8345 2.73416 57.1547 3.48405C59.4722 4.23672 61.7924 5.10603 63.0208 6.84188C63.2381 7.32792 61.3412 5.76704 58.2466 4.8894C55.1492 4.0173 51.141 3.25075 45.378 3.70624C43.7206 3.82289 43.3307 3.68124 45.2888 2.94524Z" fill="#231F20"/>
<path fill-rule="evenodd" clip-rule="evenodd" d="M68.989 51.7487C68.5907 50.7933 68.1618 53.5318 67.9417 54.5372C67.4793 56.6369 66.2788 57.4368 65.2566 57.8311C64.0477 58.0367 62.7107 57.5617 62.0171 56.7841C60.9809 55.6204 61.1035 54.3511 60.5046 54.9232C59.9531 55.4482 59.4712 56.1814 57.8557 57.2368C54.5048 59.4281 50.544 57.7811 49.1903 56.9813C48.5719 56.4758 48.246 57.0174 48.9981 57.7506C51.0676 59.7614 54.2096 60.3891 56.4128 59.9753C57.5159 59.767 58.8473 59.6698 60.0534 59.6281C61.2595 59.5837 62.3402 59.6087 62.9474 59.6475C63.5519 59.6892 64.0449 59.6336 64.4739 59.5114C65.4348 59.3698 66.8805 58.8032 67.5935 57.77C69.5907 54.8871 69.2397 52.3486 68.989 51.7487Z" fill="#231F20"/>
<path fill-rule="evenodd" clip-rule="evenodd" d="M41.2913 22.0845C41.0044 22.3512 40.4612 23.0761 40.0685 24.3703C39.7342 24.2676 39.1716 23.9593 38.7705 23.1038C38.829 22.3762 39.3833 21.6068 40.0991 21.0875C40.0991 21.0875 41.0935 21.8901 41.2913 22.0845ZM45.046 21.7596C45.6226 22.6678 45.6533 25.9534 44.8037 26.5811C43.9569 27.2088 43.8901 25.5451 44.5029 24.3703C44.7118 23.962 44.9151 22.3401 44.8455 22.1429C44.7759 21.9457 44.8538 21.4541 45.046 21.7596ZM46.7089 27.1005C46.6087 27.256 46.4638 27.3532 46.2939 27.381L45.631 27.4643C44.8511 27.5532 43.6756 27.6893 42.1297 28.0948C41.2495 28.3281 40.2941 28.1281 39.4334 27.5337C38.361 26.7922 37.5923 25.559 37.4753 24.3925C37.4586 24.2203 37.4502 24.0509 37.4502 23.8871C37.4502 23.2288 37.5867 22.6206 37.8569 22.0762C38.6006 20.5903 41.2495 18.2212 44.0238 19.4877C46.2605 20.5126 46.397 22.49 46.4833 23.7954C46.5112 24.1926 46.5362 24.5286 46.6059 24.773C46.7897 25.4118 47.0515 26.5644 46.7089 27.1005Z" fill="#231F20"/>
<path fill-rule="evenodd" clip-rule="evenodd" d="M37.5924 63.1505C28.0886 59.1428 22.4453 52.4604 22.4453 45.567C22.4453 45.0865 22.4732 44.6061 22.5261 44.1283C22.6097 43.4035 22.969 42.2981 23.2587 41.6343C23.4007 49.1998 29.4339 56.9653 38.3891 61.0341C40.3221 61.9118 45.0016 63.5254 45.1855 63.581C46.425 63.9587 46.918 64.0587 47.3052 64.1976C46.0295 65.0474 41.7121 64.8808 37.5924 63.1505Z" fill="#231F20"/>
<path d="M87.7989 56.693H90.5425C97.4587 56.6152 100.486 52.7436 100.486 43.8199C100.486 35.9628 97.637 31.5801 91.8962 31.4996H87.7989V56.693ZM91.7179 28.7361C99.7734 28.7361 103.411 35.1712 103.411 43.9394C103.411 53.7323 99.7734 59.4593 90.9715 59.4593H84.877V28.7361H91.7179Z" fill="#231F20"/>
<path d="M119.664 48.5581C119.664 44.8476 118.842 39.6345 114.567 39.6345C110.288 39.6345 109.469 44.8476 109.469 48.5581C109.469 52.2715 110.288 57.4818 114.567 57.4818C118.842 57.4818 119.664 52.2715 119.664 48.5581ZM106.689 48.5581C106.689 40.3843 110.182 37.0293 114.567 37.0293C118.951 37.0293 122.444 40.3843 122.444 48.5581C122.444 56.7347 118.951 60.0897 114.567 60.0897C110.182 60.0897 106.689 56.7347 106.689 48.5581Z" fill="#231F20"/>
<path d="M132.922 39.3596C130.248 39.3596 128.574 41.8453 128.574 44.6505C128.574 47.3751 130.106 49.783 132.674 49.783C135.524 49.783 137.092 47.6111 137.092 44.6116C137.092 41.7676 135.702 39.3596 132.922 39.3596ZM131.034 58.1151C129.535 58.4317 127.326 59.4177 127.326 61.3924C127.326 64.3947 131.318 64.553 133.209 64.553C135.204 64.553 138.733 64.117 138.733 61.1175C138.733 58.8261 135.452 58.5484 133.956 58.4317L131.034 58.1151ZM141.585 39.6346H140.552C139.766 39.6346 139.268 39.6734 138.555 40.1095C139.373 41.451 139.766 42.9924 139.766 44.6116C139.766 48.836 136.95 52.1132 133.137 52.1132C131.998 52.1132 130.998 51.8772 129.964 51.4411C129.357 51.9938 128.29 52.7048 128.29 53.7713C128.29 56.5348 141.407 53.0603 141.407 61.3146C141.407 62.9338 140.942 66.9999 133.064 66.9999C126.65 66.9999 124.655 64.2364 124.655 61.5507C124.655 59.3011 126.435 58.0762 128.076 57.2875C126.898 56.7737 125.616 55.8238 125.616 54.2463C125.616 52.3104 126.97 51.7189 128.076 50.258C126.65 48.4027 125.9 47.0973 125.9 44.531C125.9 40.1095 128.895 37.0294 132.853 37.0294C134.421 37.0294 135.847 37.5404 137.128 38.5681C138.412 37.5015 139.908 36.7128 141.585 36.91V39.6346Z" fill="#231F20"/>
<path d="M154.772 42.5174C153.666 40.701 152.348 39.6345 150.282 39.6345C148.463 39.6345 146.752 40.6621 146.752 42.8729C146.752 48.2026 157.125 45.8724 157.125 53.2185C157.125 57.4818 154.379 60.0897 150.674 60.0897C147.502 60.0897 144.934 58.5483 143.329 55.5099L145.541 53.9684C146.61 56.2209 148.321 57.4818 150.674 57.4818C152.705 57.4818 154.521 56.2598 154.521 53.7712C154.521 48.2832 144.151 50.8883 144.151 43.0701C144.151 39.3178 146.931 37.0293 150.173 37.0293C152.919 37.0293 155.201 38.293 156.733 40.8204L154.772 42.5174Z" fill="#231F20"/>
<path d="M176.871 33.9492H169.671V59.4593H164.111V33.9492H156.911V28.7361H176.871V33.9492Z" fill="#231F20"/>
<path d="M181.648 41.2146C183.678 38.5678 185.319 36.8708 187.742 36.8708H188.742V42.7144C188.241 42.595 187.742 42.4783 187.207 42.4783C185.854 42.4783 181.648 43.8587 181.648 49.7439V59.4591H176.372V37.3458H181.648V41.2146Z" fill="#231F20"/>
<path d="M203.068 57.1675C201.394 58.7089 199.327 59.931 197.118 59.931C194.943 59.931 191.876 58.4701 191.876 53.0209V37.3455H197.152V50.6518C197.152 52.4293 197.046 55.2317 199.327 55.2317C200.859 55.2317 202.071 54.0096 203.068 52.8237V37.3455H208.343V59.4588H203.068V57.1675Z" fill="#231F20"/>
<path d="M221.212 43.8198C220.962 42.2812 220.499 41.1758 218.931 41.1758C217.683 41.1758 216.792 42.2006 216.792 43.6226C216.792 47.4137 226.452 44.6502 226.452 52.9434C226.452 57.6427 222.923 59.9313 218.859 59.9313C214.761 59.9313 212.16 57.7205 211.625 53.1406L216.577 52.5463C216.683 54.1266 217.433 55.6264 219.037 55.6264C220.357 55.6264 221.602 54.957 221.602 53.2573C221.602 49.3884 211.945 52.5463 211.945 43.9392C211.945 39.476 215.402 36.8708 219.288 36.8708C222.781 36.8708 225.594 39.3177 226.201 43.1477L221.212 43.8198Z" fill="#231F20"/>
<path d="M235.903 37.3454H240V42.2002H235.903V53.4541C235.903 54.5206 236.187 55.626 237.897 55.626C238.789 55.626 239.36 55.2316 240 54.7983V59.2588C238.897 59.6143 237.755 59.9309 236.616 59.9309C233.338 59.9309 230.627 57.8784 230.627 53.0597V42.2002H228.168V37.3454H230.627V31.8157H235.903V37.3454Z" fill="#231F20"/>
</svg>
