<svg width="240" height="96" viewBox="0 0 240 96" fill="none" xmlns="http://www.w3.org/2000/svg">
<path d="M91.8515 49.5085C89.2413 49.3748 87.1461 48.7866 85.5659 47.744C84.0348 46.6581 82.999 45.0482 82.4586 42.914C80.9335 45.2171 79.2304 46.9157 77.3492 48.01C75.4705 49.0585 73.4824 49.5291 71.3849 49.4217C67.7493 49.2354 65.0209 47.8135 63.1998 45.1558C61.3786 42.4981 60.6203 38.3151 60.925 32.6066C61.0688 29.9122 61.4703 27.6432 62.1295 25.7995C62.8354 23.9581 63.9289 22.2969 65.4101 20.8159C66.0504 21.0777 66.4296 21.4176 66.5475 21.8358C66.7144 22.2107 66.7784 22.7635 66.7394 23.4941C66.7004 24.2248 66.5682 24.9507 66.3427 25.6719C66.1639 26.3954 66.0475 26.8244 65.9936 26.9591C65.5942 28.3124 65.2733 29.5094 65.0308 30.5502C64.8374 31.5478 64.7004 32.8 64.62 34.3071C64.4445 37.5951 64.93 40.3217 66.0764 42.4869C67.2718 44.6088 69.0814 45.7318 71.5051 45.856C74.2551 45.9969 76.4455 45.239 78.0763 43.5825C79.7561 41.8826 80.6666 39.7083 80.808 37.0596L80.6915 30.0474C80.7061 29.7734 80.9071 29.509 81.2947 29.254C81.7288 29.0015 82.2022 28.8884 82.7149 28.9147C83.3674 28.9481 83.7871 29.4046 83.9738 30.2842C84.1606 31.1639 84.2972 32.5446 84.3837 34.4266C84.5391 36.7699 84.7397 38.7035 84.9856 40.2272C85.2805 41.7077 85.9102 43.045 86.8747 44.2393C87.8416 45.3878 89.3039 46.0122 91.2616 46.1125C93.6387 46.2343 95.3974 45.6833 96.5377 44.4595C97.6804 43.1901 98.3078 41.505 98.4199 39.4043C98.5198 37.5319 98.2517 35.5491 97.6156 33.4559C97.0286 31.3194 96.2577 29.5627 95.3029 28.1858C95.2782 27.7724 95.5063 27.4406 95.987 27.1905C96.5143 26.9427 97.0307 26.9005 97.5361 27.0638C98.3653 27.2894 99.0954 28.0595 99.7263 29.374C100.404 30.6909 100.901 32.3191 101.218 34.2586C101.582 36.2006 101.713 38.1305 101.61 40.0486C101.457 42.9256 100.584 45.2621 98.9929 47.0581C97.4481 48.8564 95.0676 49.6732 91.8515 49.5085Z" fill="#3C6373"/>
<path d="M198.41 6.95393C200.507 7.06138 202.483 7.68923 204.338 8.83748C206.196 9.94007 207.664 11.3204 208.744 12.9784C209.871 14.6389 210.392 16.2683 210.306 17.8667L208.768 17.7879C208.069 17.752 207.451 17.5143 206.913 17.0746C206.423 16.6374 205.782 15.9406 204.992 14.9842C203.848 13.6435 202.804 12.6283 201.859 11.9389C200.961 11.2518 199.766 10.87 198.275 10.7936C195.711 10.6623 193.505 11.7169 191.656 13.9576C189.81 16.1527 188.641 18.7945 188.149 21.8832C187.933 23.2917 187.788 24.7038 187.712 26.1195C187.588 28.4486 187.636 30.6033 187.858 32.5837C188.459 32.7061 189.874 32.8931 192.104 33.1447C194.334 33.3963 196.169 33.6048 197.61 33.7702C198.122 33.7964 199.122 33.8934 200.609 34.0612C201.075 34.0851 201.395 34.216 201.569 34.4538C201.792 34.6484 201.891 34.9969 201.864 35.4993C201.798 36.7323 200.344 37.276 197.5 37.1303C195.03 37.0038 191.954 36.4111 188.271 35.3524C188.674 37.4337 189.225 39.3624 189.925 41.1383C190.627 42.8686 191.544 44.9534 192.676 47.3925C193.472 49.1276 194.053 50.4854 194.422 51.4659C194.793 52.4007 194.961 53.1878 194.927 53.8272C194.9 54.3295 194.717 54.6865 194.379 54.8981C194.043 55.0641 193.572 55.1315 192.966 55.1005C191.707 55.036 190.588 53.6736 189.609 51.0133C188.678 48.3096 187.638 44.5929 186.488 39.8632L185.445 35.7572C184.415 35.796 183.118 36.0043 181.556 36.3822C181.414 36.4207 180.917 36.5326 180.066 36.718C179.264 36.8601 178.536 36.9144 177.884 36.881C177.138 36.8428 176.788 36.3898 176.835 35.5221C176.895 34.3805 177.542 33.658 178.773 33.3547C180.007 33.0058 181.161 32.836 182.235 32.8452C183.312 32.8088 183.992 32.7749 184.274 32.7436C184.273 31.0034 184.31 29.4483 184.383 28.0783C184.697 22.1872 185.878 17.1418 187.925 12.9422C190.021 8.69931 193.516 6.70322 198.41 6.95393Z" fill="#3C6373"/>
<path fill-rule="evenodd" clip-rule="evenodd" d="M153.606 51.2876C154.575 51.1277 155.58 50.9617 156.61 51.0145C157.658 51.0682 158.672 51.3413 159.663 51.6083C161.315 52.0536 162.905 52.4819 164.487 51.8473C167.068 50.7889 169.184 49.2259 170.837 47.1583C172.492 45.0451 173.398 42.5271 173.554 39.6044C173.697 36.91 173.218 34.5042 172.116 32.3871C171.014 30.27 169.49 28.6121 167.544 27.4134C165.645 26.2171 163.553 25.5604 161.269 25.4434C156.282 25.1879 152.004 26.0907 148.435 28.1517C144.913 30.2151 143.031 33.5302 142.787 38.097C142.638 40.8827 143.111 43.4026 144.206 45.6567C145.35 47.8676 146.985 49.6456 149.11 50.9909C150.47 51.8054 151.987 51.5549 153.606 51.2876ZM154.624 47.874C155.364 47.7599 156.131 47.6416 156.917 47.6819C157.717 47.7229 158.492 47.9229 159.249 48.1184C160.511 48.4445 161.726 48.7581 162.932 48.3012C164.9 47.5391 166.512 46.4104 167.77 44.915C169.029 43.3865 169.715 41.5632 169.828 39.445C169.932 37.4923 169.562 35.7476 168.716 34.2108C167.87 32.6741 166.703 31.4693 165.215 30.5966C163.763 29.7257 162.165 29.2456 160.421 29.1563C156.614 28.9612 153.35 29.6071 150.63 31.0939C147.945 32.5826 146.515 34.9818 146.338 38.2914C146.23 40.3103 146.597 42.1378 147.437 43.7739C148.315 45.3786 149.566 46.6707 151.191 47.65C152.231 48.243 153.389 48.0645 154.624 47.874Z" fill="#3C6373"/>
<path fill-rule="evenodd" clip-rule="evenodd" d="M117.093 49.4338C118.023 49.2803 118.988 49.121 119.976 49.1717C120.982 49.2232 121.955 49.4853 122.906 49.7416C124.492 50.169 126.018 50.58 127.536 49.971C130.013 48.9552 132.044 47.4551 133.63 45.4708C135.219 43.4426 136.088 41.026 136.237 38.221C136.375 35.6351 135.916 33.3262 134.858 31.2943C133.8 29.2624 132.337 27.6713 130.47 26.5208C128.647 25.3727 126.64 24.7425 124.448 24.6302C119.661 24.385 115.556 25.2514 112.131 27.2294C108.751 29.2098 106.944 32.3914 106.71 36.7742C106.567 39.4478 107.021 41.8663 108.072 44.0296C109.17 46.1515 110.738 47.8579 112.778 49.149C114.083 49.9307 115.539 49.6903 117.093 49.4338ZM118.081 46.1582C118.79 46.0488 119.527 45.9353 120.281 45.9739C121.049 46.0133 121.792 46.2052 122.519 46.3928C123.731 46.7057 124.896 47.0067 126.054 46.5683C127.943 45.8369 129.49 44.7536 130.697 43.3184C131.905 41.8515 132.564 40.1015 132.672 38.0686C132.772 36.1945 132.417 34.5201 131.605 33.0452C130.793 31.5703 129.673 30.4141 128.245 29.5765C126.852 28.7407 125.318 28.2799 123.644 28.1942C119.99 28.007 116.857 28.6268 114.247 30.0538C111.671 31.4825 110.298 33.7851 110.128 36.9615C110.025 38.8991 110.376 40.653 111.183 42.2232C112.026 43.7634 113.227 45.0034 114.786 45.9432C115.784 46.5124 116.895 46.3411 118.081 46.1582Z" fill="#3C6373"/>
<path d="M167.204 15.1925C166.48 14.0196 165.392 13.3125 164.218 13.2524C163.044 13.1923 161.887 13.7844 161.042 14.8769C160.267 15.8805 159.797 17.2267 159.72 18.6674C159.643 20.1082 159.967 21.495 160.632 22.5724C161.355 23.7452 162.444 24.4524 163.617 24.5125C164.791 24.5727 165.948 23.9805 166.793 22.888C167.569 21.8844 168.038 20.5382 168.115 19.0975C168.192 17.6568 167.868 16.2699 167.204 15.1925Z" fill="#3C6373"/>
<path d="M157.67 14.704C156.947 13.5311 155.859 12.824 154.685 12.7639C153.511 12.7037 152.354 13.2959 151.509 14.3884C150.733 15.392 150.264 16.7382 150.187 18.1789C150.11 19.6196 150.434 21.0064 151.099 22.0839C151.822 23.2568 152.91 23.9639 154.084 24.0241C155.258 24.0842 156.415 23.4921 157.26 22.3995C158.036 21.3959 158.505 20.0498 158.582 18.609C158.659 17.1683 158.335 15.7814 157.67 14.704Z" fill="#3C6373"/>
<path d="M176.245 23.0474C175.985 21.9777 175.348 21.1775 174.452 20.7942C173.731 20.4859 172.898 20.4892 172.107 20.8037C171.017 21.2371 170.093 22.2 169.573 23.4455C169.148 24.4633 169.044 25.5567 169.279 26.5245C169.539 27.5942 170.176 28.3945 171.072 28.7777C171.382 28.9103 171.713 28.9853 172.052 29.0026C172.501 29.0257 172.966 28.9475 173.417 28.7682C174.507 28.3348 175.431 27.3719 175.951 26.1265L175.951 26.1265C176.375 25.1087 176.48 24.0152 176.245 23.0474Z" fill="#3C6373"/>
<path d="M148.273 22.354C147.889 21.0621 147.072 20.0102 146.034 19.4678C145.281 19.0741 144.453 18.9858 143.703 19.2187C142.771 19.5084 142.053 20.2392 141.68 21.2765C141.343 22.215 141.331 23.3132 141.645 24.3687L141.645 24.3688C142.03 25.6606 142.846 26.7126 143.884 27.255C144.313 27.4794 144.767 27.6046 145.217 27.6276C145.556 27.645 145.893 27.6042 146.215 27.504C147.148 27.2144 147.866 26.4836 148.238 25.4463C148.575 24.5079 148.587 23.4097 148.273 22.354Z" fill="#3C6373"/>
<path d="M130.548 14.3876C129.825 13.2147 128.737 12.5076 127.563 12.4475C126.389 12.3873 125.232 12.9795 124.387 14.072C123.611 15.0756 123.142 16.4218 123.065 17.8625C122.988 19.3032 123.312 20.69 123.976 21.7675C124.7 22.9403 125.788 23.6475 126.962 23.7076C128.136 23.7677 129.293 23.1756 130.138 22.0831C130.914 21.0795 131.383 19.7333 131.46 18.2926C131.537 16.8518 131.213 15.465 130.548 14.3876Z" fill="#3C6373"/>
<path d="M121.016 13.8995C120.292 12.7267 119.204 12.0195 118.031 11.9594C116.857 11.8993 115.699 12.4914 114.855 13.5839C114.079 14.5876 113.609 15.9337 113.533 17.3745C113.456 18.8152 113.779 20.202 114.444 21.2794C115.168 22.4523 116.256 23.1595 117.43 23.2196C118.603 23.2798 119.761 22.6876 120.605 21.5951C121.381 20.5914 121.851 19.2453 121.928 17.8045C122.005 16.3638 121.681 14.9769 121.016 13.8995Z" fill="#3C6373"/>
<path d="M139.59 22.2425C139.33 21.1728 138.693 20.3725 137.797 19.9893C137.076 19.6809 136.243 19.6843 135.452 19.9988C134.362 20.4322 133.438 21.3951 132.918 22.6406C132.493 23.6583 132.389 24.7518 132.624 25.7196C132.884 26.7893 133.52 27.5895 134.416 27.9728C134.727 28.1054 135.057 28.1803 135.396 28.1977C135.846 28.2207 136.311 28.1425 136.762 27.9633C137.852 27.5299 138.775 26.567 139.295 25.3216L139.295 25.3215C139.72 24.3038 139.825 23.2103 139.59 22.2425Z" fill="#3C6373"/>
<path d="M111.618 21.5493C111.233 20.2574 110.417 19.2055 109.379 18.6631C108.626 18.2695 107.798 18.1811 107.048 18.414C106.116 18.7037 105.397 19.4345 105.025 20.4718C104.688 21.4103 104.676 22.5085 104.99 23.5641L104.99 23.5641C105.375 24.8559 106.191 25.9079 107.229 26.4503C107.658 26.6747 108.112 26.7999 108.561 26.8229C108.901 26.8403 109.238 26.7995 109.56 26.6994C110.492 26.4097 111.211 25.6789 111.583 24.6416C111.92 23.7032 111.932 22.605 111.618 21.5493Z" fill="#3C6373"/>
<path d="M40.0931 94.832C37.4663 94.8294 35.3326 94.3447 33.6919 93.3779C32.0981 92.3652 30.974 90.8015 30.3195 88.6868C28.9098 91.0751 27.2897 92.8659 25.459 94.0589C23.6285 95.206 21.6578 95.7785 19.547 95.7763C15.8883 95.7726 13.0752 94.4829 11.1079 91.9073C9.14052 89.3317 8.15988 85.1715 8.16595 79.4268C8.16881 76.7153 8.45268 74.4177 9.01755 72.534C9.62933 70.6504 10.6396 68.928 12.0485 67.3668C12.7049 67.5973 13.1033 67.9194 13.2436 68.3332C13.4308 68.701 13.5241 69.2526 13.5233 69.9879C13.5225 70.7232 13.4279 71.4585 13.2395 72.1936C13.098 72.9288 13.0037 73.3653 12.9567 73.5031C12.6269 74.8815 12.3676 76.0991 12.1789 77.156C12.0371 78.1669 11.9654 79.4307 11.9638 80.9473C11.9603 84.2562 12.5907 86.9684 13.8549 89.0837C15.1661 91.1531 17.0413 92.1891 19.4804 92.1915C22.2479 92.1944 24.4065 91.3233 25.9563 89.5785C27.553 87.7878 28.3528 85.5597 28.3556 82.8941L27.8705 75.8621C27.8708 75.5863 28.0587 75.3108 28.4343 75.0354C28.8567 74.7601 29.3259 74.6227 29.8419 74.6232C30.4986 74.6239 30.9437 75.0609 31.1773 75.9344C31.411 76.8078 31.6206 78.1868 31.8062 80.0712C32.0852 82.4153 32.388 84.3459 32.7148 85.8628C33.0885 87.3338 33.7907 88.6443 34.8214 89.7943C35.8522 90.8984 37.3526 91.4514 39.3227 91.4534C41.7149 91.4558 43.4512 90.8142 44.5314 89.5284C45.6116 88.1968 46.1529 86.4739 46.1551 84.3598C46.1571 82.4756 45.7839 80.499 45.0356 78.4302C44.3343 76.3154 43.4683 74.5911 42.4378 73.2573C42.3913 72.8436 42.6027 72.4991 43.0721 72.2239C43.5884 71.9486 44.1044 71.8802 44.6202 72.0186C45.4644 72.2033 46.2375 72.9394 46.9398 74.227C47.6889 75.5145 48.2736 77.1236 48.6937 79.0543C49.1607 80.985 49.3932 82.9155 49.3912 84.8457C49.3881 87.741 48.6351 90.13 47.1321 92.0128C45.676 93.8956 43.3296 94.8353 40.0931 94.832Z" fill="#3C6373"/>
<path d="M76.6271 95.2138C71.7488 95.2088 67.5046 94.3773 63.8946 92.7192C60.3315 91.0151 58.5521 88.049 58.5566 83.8209C58.5582 82.3043 59.0288 80.8342 59.9685 79.4104C60.9081 77.9867 62.2931 76.8391 64.1234 75.9678C65.9537 75.0505 68.1822 74.5932 70.809 74.5959C72.826 74.5979 74.538 74.6916 75.945 74.8768C77.352 75.0621 78.9697 75.5692 80.7982 76.3983C82.6267 77.2274 84.525 78.5392 86.4932 80.3335C85.7461 77.1617 84.6232 74.3801 83.1247 71.9888C81.6263 69.5974 79.9396 67.7574 78.0647 66.4687C76.2367 65.1341 74.4315 64.4659 72.6491 64.464C71.8048 64.4632 71.0072 64.6232 70.2563 64.9442C69.5524 65.2192 68.6842 65.6319 67.6517 66.1824C66.4783 66.9165 65.6101 67.2833 65.0472 67.2827C64.8127 67.2825 64.6017 67.2133 64.4142 67.0753C64.2737 66.8913 64.2035 66.6844 64.2038 66.4546C64.2057 64.6163 65.0281 63.1925 66.6709 62.1831C68.3606 61.1737 70.4015 60.7162 72.7937 60.8106C76.0769 60.9977 79.0775 62.3795 81.7953 64.9559C84.5133 67.4863 86.6442 70.6366 88.1881 74.4067C89.779 78.1768 90.5725 81.8772 90.5686 85.5079C90.568 86.1053 90.5202 86.9555 90.4252 88.0584L88.1738 87.9182C86.3951 84.3777 84.0993 81.8707 81.2865 80.3972C78.5206 78.8777 75.7305 78.1166 72.9161 78.1138C69.3043 78.1101 66.7239 78.636 65.1748 79.6914C63.6258 80.7469 62.8502 82.2857 62.8481 84.3078C62.8458 86.4219 63.9229 88.1234 66.0792 89.4124C68.2356 90.7014 71.0024 91.3476 74.3797 91.3511C76.2559 91.353 77.757 91.2626 78.883 91.0799C80.009 90.8512 81.1819 90.5537 82.4019 90.1873C83.3873 89.8666 84.2553 89.6377 85.006 89.5006C85.7566 89.3634 86.7183 89.2955 87.8909 89.2967C89.2043 89.298 90.0251 89.3908 90.3532 89.5749C90.7283 89.7591 90.9155 90.1729 90.9148 90.8163C90.9143 91.2759 89.9521 91.8494 88.0282 92.5368C86.1043 93.2243 83.946 93.8425 81.5532 94.3916C79.1603 94.9406 77.5183 95.2147 76.6271 95.2138Z" fill="#3C6373"/>
<path d="M103.93 94.7589C102.903 89.7485 102.112 83.8192 101.557 76.9709C101.048 70.0767 100.677 66.6932 100.683 60.2591C100.687 57.0421 100.76 54.1928 100.903 51.7112C100.904 51.1137 101.373 50.8155 102.312 50.8164C103.062 50.8172 103.531 51.0015 103.718 51.3694C103.952 51.7373 104.069 52.3118 104.068 53.0931C104.06 60.5383 104.315 63.623 104.591 68.9084C104.866 74.1479 105.236 79.801 105.698 85.8679C105.976 89.7746 106.161 92.4174 106.253 93.7962C106.299 94.5316 105.9 94.8988 105.056 94.898C104.774 94.8977 104.399 94.8513 103.93 94.7589Z" fill="#3C6373"/>
<path d="M120.673 95.3274C119.5 95.3262 118.915 94.6592 118.916 93.3265C118.916 93.0507 119.011 92.4764 119.199 91.6033C119.435 90.7304 119.553 89.7654 119.554 88.7084L119.558 85.3305L119.563 80.3671C119.332 77.1038 118.75 73.1279 117.817 68.4393C116.79 63.291 115.998 58.5105 115.439 54.098C115.581 53.3169 115.957 52.9266 116.566 52.9273C117.364 52.9281 118.323 54.9971 119.445 59.1345C120.566 63.2258 121.708 70.0058 122.871 79.4742C123.811 77.1773 125.104 74.8578 126.748 72.5156C128.392 70.1274 130.13 68.153 131.961 66.5923C133.792 65.0316 135.387 64.252 136.748 64.2533C137.311 64.2539 137.662 64.4151 137.803 64.737C137.99 65.0589 138.06 65.5185 138.012 66.1159C135.242 68.5029 132.448 71.2805 129.631 74.4487C126.813 77.6169 125.403 80.0743 125.401 81.8206C125.4 82.8777 126.29 84.0965 128.071 85.477C129.852 86.8116 132.055 88.0087 134.681 89.0684C137.307 90.0821 139.769 90.6591 142.067 90.7993C142.958 90.9381 143.403 91.4671 143.402 92.3862C143.401 93.9488 141.899 94.7285 138.897 94.7255C136.504 94.7231 133.879 93.7783 131.019 91.8911C128.207 90.004 125.77 88.0253 123.708 85.9551C123.567 86.7363 123.472 87.4255 123.425 88.0229C123.377 88.5744 123.33 89.0569 123.282 89.4705C123.093 91.4924 122.833 92.9858 122.504 93.9505C122.221 94.8694 121.611 95.3284 120.673 95.3274Z" fill="#3C6373"/>
<path d="M166.37 95.3048C163.368 95.3018 160.601 94.7245 158.069 93.573C155.538 92.4215 153.522 90.788 152.024 88.6724C150.525 86.5568 149.777 84.1203 149.78 81.3628C149.783 78.2837 150.372 75.4119 151.548 72.7475C152.723 70.0372 154.438 67.879 156.691 66.2727C158.991 64.6206 161.666 63.7961 164.715 63.7992C167.904 63.8024 170.319 64.8159 171.959 66.8397C173.598 68.8176 174.369 71.323 174.272 74.3561C174.27 77.0677 173.165 79.1346 170.959 80.5571C168.8 81.9796 166.032 82.6891 162.654 82.6857C162.138 82.6852 161.364 82.6384 160.333 82.5455C158.644 82.3599 157.448 82.1059 156.745 81.7835C156.042 81.4611 155.691 80.8173 155.692 79.8522C155.692 79.5305 155.786 79.3008 155.974 79.1631C156.162 78.9795 156.537 78.888 157.1 78.8885C157.71 78.8892 158.788 79.0281 160.336 79.3054C161.837 79.5827 163.173 79.7219 164.346 79.7231C168.661 79.7275 170.821 77.8914 170.825 74.2148C170.827 72.0088 170.407 70.262 169.564 68.9743C168.768 67.6867 167.338 67.0418 165.274 67.0397C163.023 67.0375 161.005 67.6329 159.221 68.826C157.438 69.9731 156.052 71.4883 155.065 73.3715C154.125 75.2549 153.654 77.2535 153.652 79.3676C153.648 82.9983 154.677 85.9865 156.738 88.3325C158.8 90.6325 161.988 91.7846 166.303 91.789C166.819 91.7895 167.687 91.7445 168.907 91.6538C169.423 91.6083 170.056 91.4711 170.807 91.2421C171.558 91.0131 172.097 90.8528 172.426 90.7612C174.443 90.0739 175.921 89.7307 176.86 89.7316C177.563 89.7323 178.102 89.9167 178.477 90.2848C177.303 92.03 175.542 93.315 173.196 94.1398C170.897 94.9188 168.622 95.3071 166.37 95.3048Z" fill="#3C6373"/>
<path d="M191.013 95.3298C189.094 91.6513 187.574 87.3297 186.453 82.3651C185.38 77.4006 184.845 73.103 184.849 69.4724C184.85 68.0477 185.179 67.1289 185.837 66.7159C186.212 66.4865 186.494 66.3719 186.681 66.3721C187.01 66.3724 187.244 66.6254 187.384 67.1311C187.571 67.6368 187.758 68.5562 187.944 69.8891L188.293 72.3712C188.812 69.89 189.799 67.9378 191.255 66.5146C192.757 65.0455 194.587 64.312 196.745 64.3142C199.137 64.3166 200.919 64.778 202.091 65.6984C203.263 66.5727 203.847 68.044 203.845 70.1121C201.501 69.0067 199.367 68.4531 197.444 68.4511C195.615 68.4493 194.043 68.9302 192.729 69.894C191.414 70.8578 190.498 72.2815 189.98 74.1653C189.556 75.4517 189.344 76.6693 189.343 77.8183C189.342 79.0591 189.505 80.2312 189.832 81.3345C190.206 82.3919 190.767 83.7023 191.516 85.2656C192.218 86.8749 192.756 88.2541 193.13 89.4035C193.551 90.5528 193.784 91.7939 193.83 93.1267C193.829 93.908 193.547 94.4822 192.984 94.8493C192.42 95.1704 191.764 95.3306 191.013 95.3298Z" fill="#3C6373"/>
<path d="M210.481 87.2151C211.138 86.7102 211.772 86.4581 212.382 86.4587C212.944 86.4593 213.484 86.6207 213.999 86.9429C214.562 87.2652 215.124 87.6794 215.687 88.1855C216.249 88.6456 216.694 88.9908 217.022 89.2209C218.1 90.0492 219.577 90.6941 221.453 91.1556C223.329 91.6171 225.322 91.8489 227.433 91.851C229.825 91.8535 231.96 91.419 233.837 90.5477C235.761 89.6305 236.724 88.4136 236.726 86.897C236.727 85.5183 236.212 84.4378 235.181 83.6554C234.15 82.8272 232.908 82.2284 231.454 81.8593C230 81.4902 228.077 81.1435 225.686 80.8194C222.449 80.4485 219.87 79.9863 217.947 79.4328C216.072 78.8794 214.572 77.9817 213.447 76.7397C212.323 75.4518 211.762 73.6589 211.764 71.361C211.767 68.8793 212.965 67.0422 215.358 65.8497C217.752 64.6113 220.497 63.9936 223.593 63.9968C226.407 63.9996 228.799 64.5995 230.767 65.7964C232.783 66.9474 233.813 68.6029 233.858 70.763C233.95 72.0039 233.762 72.9918 233.292 73.7267C232.822 74.4155 232.259 74.7597 231.602 74.759C231.227 74.7586 230.899 74.6204 230.618 74.3444C230.383 74.0684 230.266 73.7006 230.267 73.241C230.268 72.5057 230.527 71.7017 231.043 70.829C230.81 69.7258 230.037 68.8978 228.724 68.345C227.458 67.7922 225.934 67.5149 224.152 67.5131C221.525 67.5104 219.437 67.9909 217.888 68.9544C216.339 69.872 215.564 70.9742 215.563 72.261C215.561 73.6397 216.123 74.6973 217.248 75.4338C218.373 76.1703 219.733 76.7002 221.327 77.0235C222.969 77.3009 225.29 77.579 228.292 77.8578C230.778 78.182 232.794 78.5747 234.342 79.0358C235.936 79.497 237.272 80.3946 238.349 81.7284C239.427 83.0163 239.964 84.8782 239.962 87.3139C239.959 89.8416 238.761 91.8395 236.367 93.3078C233.973 94.73 231.111 95.4395 227.781 95.4361C223.512 95.4318 219.69 94.7155 216.315 93.2874C212.986 91.8594 211.041 89.8352 210.481 87.2151Z" fill="#3C6373"/>
<path d="M34.786 73.1757C31.6092 76.3718 26.3691 76.3718 23.1924 73.1757L18.7216 68.6777C13.7254 63.6511 17.3589 55.2086 24.5184 55.2086L33.46 55.2086C40.6195 55.2087 44.253 63.651 39.2568 68.6777L34.786 73.1757Z" fill="#3C6373"/>
<path fill-rule="evenodd" clip-rule="evenodd" d="M26.8022 45.2945C26.8022 51.0659 22.027 55.7445 16.1365 55.7445C10.2459 55.7445 5.4707 51.0659 5.4707 45.2945C5.4707 39.5231 10.2459 34.8445 16.1365 34.8445C22.027 34.8445 26.8022 39.5231 26.8022 45.2945ZM23.9942 43.3695C23.9942 46.2552 21.6066 48.5945 18.6613 48.5945C15.716 48.5945 13.3284 46.2552 13.3284 43.3695C13.3284 40.4838 15.716 38.1445 18.6613 38.1445C21.6066 38.1445 23.9942 40.4838 23.9942 43.3695ZM10.8018 49.6943C11.5769 49.6943 12.2052 49.0787 12.2052 48.3193C12.2052 47.5599 11.5769 46.9443 10.8018 46.9443C10.0268 46.9443 9.39844 47.5599 9.39844 48.3193C9.39844 49.0787 10.0268 49.6943 10.8018 49.6943Z" fill="#3C6373"/>
<path fill-rule="evenodd" clip-rule="evenodd" d="M51.4155 43.6871C51.4155 49.4584 46.6403 54.1371 40.7498 54.1371C34.8592 54.1371 30.084 49.4584 30.084 43.6871C30.084 37.9157 34.8592 33.2371 40.7498 33.2371C46.6403 33.2371 51.4155 37.9157 51.4155 43.6871ZM48.6077 41.7618C48.6077 44.6474 46.2201 46.9868 43.2748 46.9868C40.3296 46.9868 37.942 44.6474 37.942 41.7618C37.942 38.8761 40.3296 36.5368 43.2748 36.5368C46.2201 36.5368 48.6077 38.8761 48.6077 41.7618ZM35.4162 48.0869C36.1913 48.0869 36.8196 47.4713 36.8196 46.7119C36.8196 45.9525 36.1913 45.3369 35.4162 45.3369C34.6412 45.3369 34.0128 45.9525 34.0128 46.7119C34.0128 47.4713 34.6412 48.0869 35.4162 48.0869Z" fill="#3C6373"/>
<ellipse rx="2.11286" ry="2.07093" transform="matrix(0.995398 -0.0958283 0.0997874 0.995009 2.30979 61.83)" fill="#3C6373"/>
<ellipse rx="2.11286" ry="2.07093" transform="matrix(0.995398 -0.0958283 0.0997874 0.995009 8.61741 61.2226)" fill="#3C6373"/>
<ellipse rx="2.11286" ry="2.07093" transform="matrix(0.995398 -0.0958283 0.0997874 0.995009 5.75022 66.4922)" fill="#3C6373"/>
<ellipse rx="2.11279" ry="2.071" transform="matrix(0.99457 -0.104068 0.10836 0.994112 47.8062 59.7669)" fill="#3C6373"/>
<ellipse rx="2.11279" ry="2.071" transform="matrix(0.99457 -0.104068 0.10836 0.994112 54.1109 59.1077)" fill="#3C6373"/>
<ellipse rx="2.11279" ry="2.071" transform="matrix(0.99457 -0.104068 0.10836 0.994112 51.2857 64.4)" fill="#3C6373"/>
</svg>
